<?xml version="1.0" encoding="UTF-8"?>
<!-- Generator: Adobe Illustrator 19.0.0, SVG Export Plug-In . SVG Version: 6.00 Build 0)  -->
<svg version="1.0" id="Capa_1" xmlns="http://www.w3.org/2000/svg" xmlns:xlink="http://www.w3.org/1999/xlink" x="0px" y="0px" viewBox="0 0 699.7 471.3" enable-background="new 0 0 699.7 471.3" xml:space="preserve">
<path fill="#0D5A2E" d="M461,125.2c-1.7-4.2-5.3-6.2-9.2-7.6c-12.5-4.5-25.4-6.7-38.7-6.4c-1.2,0-2.9-0.6-3.1,1.6  c-0.3,2.2,1.5,2,2.7,2.4c8.7,2.6,17.7,4.6,26.2,7.9c4.5,1.7,8.8,3.8,12.7,6.7c1.4,1,1.5,1.6,0.2,2.8c-2.2,2-4.1,3-7.5,1.8  c-11.3-4-23.1-5.5-35-5.8c-1.3,0-2.4-0.1-2.7,1.7c-0.3,1.9,0.6,2.3,2.1,2.7c7.8,2.1,15.6,4.3,23.4,6.5c1.1,0.3,2.1,0.7,3.7,1.2  c-4.9,2.9-9.8,4.1-14.9,5c-5,0.9-10,1.1-15,0.3c-0.7-0.1-1.9-0.7-2,0.5c-0.2,2.2-1.8,1.9-3.2,2.1c-21.5,2.4-42.9,5.2-64.2,8.9  c-3.8,0.7-7.5,1.9-11.2,3.3c-8.1,3.1-13.5,8.7-16.2,17c-1.2,3.7-2.6,7.3-4,10.9c-0.4,1-0.7,1.9-2.2,1.5c-10.8-2.3-21.8-4.2-32-8.7  c-0.3-0.1-0.5-0.4-1.1-0.8c2.9-1.8,6.1-1.8,9.1-2.6c2.4-0.6,4.6-1.4,5.7-3.9c0.8-1.9,0.3-2.5-1.7-2.1c-5.5,1-11.1,1.9-16.2,4.3  c-3,1.3-5.1,0.9-7.6-0.7c-2.1-1.4-4.4-2.5-6-4.9c7-3.6,14.3-6.3,21.7-8.3c3.6-1,7.3-1.8,11-2.6c1.7-0.4,3.4-3.5,2.7-5  c-0.6-1.2-1.6-0.4-2.4-0.3c-12.2,1.8-23.6,6.3-34.6,11.5c-3.1,1.5-5.5,0.6-7.2-2.5c-0.9-1.7,0.5-2,1.2-2.7  c7.3-6.9,16.2-11,25.5-14.2c5.5-1.9,11.1-3.5,16.9-4.3c0.7-0.1,1.3-0.3,2-0.5c2-0.7,2-2.5,1.8-4c-0.2-1.8-1.9-0.9-2.7-0.8  c-13.4,1.5-25.6,6.3-37.1,13.4c-3.2,2-6.3,4.1-9.6,6.4c-0.4-4.6,1.3-8.3,4-11.7c3.5-4.3,8.2-6.9,13-9.4c10.3-5.4,21.4-8.5,32.4-11.8  c0.9-0.3,1.8-0.5,2.6-0.8c1.6-0.6,1.2-2.2,1.1-3.3c0-1.2-1.2-0.6-1.9-0.5c-13.7,2.1-26.7,5.9-38.6,13.2c-3.7,2.3-7.1,5-10,8.3  c-8.5,9.7-7.1,23.1,3.3,30.6c14.6,10.5,30.9,17.1,48.5,20.4c8,1.5,16,2.9,23.3,6.8c9.1,4.9,12.8,13.1,10.1,22.2  c-1.1-0.3-1-1.4-1.4-2.2c-2.4-4.6-6-7.7-11-9.1c-9.2-2.7-18.8-3.7-28.1-6c-14.6-3.7-28.7-8.5-40.3-18.7  c-17.8-15.6-18.5-39.4-1.4-55.8c11.9-11.4,26.6-18.1,42.3-22.3c4.4-1.2,6.5-3,7.6-7.5c3.2-14.2,7.1-28.3,10.6-42.5  c0.7-2.7,1.5-3.9,4.7-3.9c35.4,0.1,70.7,0.1,106.1,0c2.6,0,3.5,0.2,2.8,3.3c-2.8,12.7-5.2,25.5-8,38.2c-0.5,2.2,0.1,2.9,2,3.3  c4.7,1.1,9.3,2.3,14,3.5c7.9,2,15.5,4.7,22.5,8.9C458,113.4,461.4,118.2,461,125.2z"/>
<path fill="#0D5A2E" d="M306.7,41c2.4-12.2,5.3-24.2,8.2-36.3c0.9-3.9,2.5-4.8,6.3-4.7c34.9,0.2,69.8,0.1,104.7,0.1  c4.4,0,4.5,0,3.6,4.3c-2.5,11.6-5.2,23.2-7.7,34.8c-0.4,1.6-1,2.3-2.7,2.3c-37.2-0.1-74.4-0.1-111.6-0.1  C307.3,41.3,307.1,41.2,306.7,41z"/>
<path fill="#0D5A2E" d="M458.9,130.1c-2.5,8.9-7.6,15.8-15.5,20.5c-10.6,6.3-22.3,9.2-34.2,11.6c-16,3.2-32.2,4.2-48.3,6.2  c-10.6,1.3-21,3-31.5,5.1c-6.4,1.3-12,4.3-16.7,9c-0.6,0.6-1,1.5-2.1,1.6c1.4-11.6,7.4-19.1,19.1-22.1c12.5-3.1,25.2-4.5,37.8-6.6  c18.5-3,37.3-4.1,55.6-8.3c9.8-2.2,19-5.7,27.4-11.4c2.8-1.9,5.3-3.9,7.5-6.4C458.8,129.1,459.3,129.2,458.9,130.1z"/>
<path fill="#B6AA38" d="M454,147.2c0.3,3.4-1,5.8-2.3,8.2c-5.8,10.7-15.6,16-26.6,19.7c-12.5,4.2-25.5,5.9-38.6,7.6  c-16.3,2.2-32.8,3.1-48.8,6.9c-3,0.7-6.1,1.3-8.8,2.7c-4.5,2.3-8.6,1.6-13-0.2c-1.8-0.8-2-1.4-1.1-2.9c2.6-4.6,6.6-7.5,11.5-9.2  c6.5-2.3,13.3-3,20.1-4c23.1-3.2,46.2-6.2,69.2-9.7C430.2,164.1,443,157.9,454,147.2z"/>
<path fill="#B6AA38" d="M328.5,198.2c23.2-4.5,46.1-8.3,69.1-10.7c15.3-1.6,30.1-5.3,43.4-13.6c4.2-2.7,8.7-5.3,9.2-11.7  c1.8,3.1,0.9,5.6-0.1,7.9c-4,9.5-11,16.1-20.4,20.2c-11.2,4.9-23.1,7-35.1,8.9c-19.2,3-38.5,4.7-57.6,8.4c-0.9,0.2-2.1,0.8-2.6-0.7  C333.4,203.6,331.2,201,328.5,198.2z"/>
<path fill="#B6AA38" d="M440.3,202.8c-2.1,8.8-6.8,15.6-15.1,19.7c-12.7,6.3-26.4,9.6-40.3,11.7c-17,2.5-34,4.6-51,6.9  c-1.8,0.2-2.7-0.1-2.3-2.1c0.5-2.7,1-5.4,1.5-8.1c0.3-1.8,1.9-1.5,3-1.7c12.8-2.3,25.7-4.2,38.6-5.9c14.8-2,29.8-3,44-8.3  c8.1-3,15.9-6.7,20.8-14.3C441.3,201,440.4,202,440.3,202.8z"/>
<path fill="#B6AA38" d="M443.5,183.5c-0.4,6.9-3.6,12.3-8.4,16.9c-8.3,7.9-18.7,11-29.6,13.3c-20.6,4.3-41.5,6.3-62.3,9.6  c-2.4,0.4-4.7,0.7-7.1,1.2c-1.5,0.3-2.1,0-1.7-1.7c0.7-2.9,1.4-5.8,1.9-8.7c0.3-1.9,1.7-2,3-2.2c8.5-1.7,17.1-2.7,25.8-3.7  c16.5-1.8,33-3,49.1-7.5c9.6-2.7,18.2-7.3,26-13.5C441.4,186.2,442.4,184.8,443.5,183.5z"/>
<path fill="#B6AA38" d="M323.5,255.8c-4.5-9.9-12.6-12.4-21.8-13.3c-12.6-1.3-24.9-3.7-36.4-9.1c-14.3-6.7-26-16.3-29.9-32.7  c-0.7-2.9-0.8-5.9-1.2-9.4c1.7,1.5,1.9,3.2,2.6,4.6c5.5,11,15.2,17.1,25.9,21.8C277,224.2,292,228,307.2,231  c11.7,2.3,18.6,11.9,16.9,22.4C324.1,253.9,323.9,254.5,323.5,255.8z"/>
<path fill="#B6AA38" d="M319.1,291.1c-4.3-8.9-11.2-12-19.7-12.9c-14-1.5-27.8-4.2-40.6-10.3c-7.8-3.7-14.7-8.9-20.3-15.6  c-5.5-6.6-7.9-14.3-7.7-22.9c0.2,0,0.6-0.1,0.6,0c6.3,13.4,17.5,21.4,30.7,27c11.5,4.8,23.6,6.9,35.8,8.8c7,1.1,13.6,3,18.1,9.1  C319.6,279.2,321.2,284.4,319.1,291.1z"/>
<path fill="#B6AA38" d="M234.2,213c9.2,16.6,24.4,24.6,41.9,29.5c9.1,2.6,18.5,3.8,27.8,5.5c6.7,1.3,12.1,4.5,15.8,10.5  c2.8,4.5,3.3,9.2,1.7,14.9c-4-8.9-11-12.1-19.6-13c-13.6-1.4-26.9-4.1-39.4-9.7c-8.6-3.9-16.2-9.4-22.1-16.9  c-3.8-4.8-6.4-10.3-6.7-16.5C233.5,215.8,232.2,214.1,234.2,213z"/>
<path fill="#B6AA38" d="M234.4,174.4c0.5,0.5,0.8,0.7,0.9,1c3.9,12.6,14.2,18.5,24.8,24.1c11.8,6.2,24.6,9.1,37.5,11.5  c5.2,1,10.2,2.3,15,4.6c8.2,4,12.3,10.9,11,19.6c-5.5-9.7-15-10.1-23.9-11.7c-5.6-1-11.2-2.1-16.7-3.6c-13.4-3.8-26.2-8.9-37-17.9  C237.5,195,234.3,185.5,234.4,174.4z"/>
<path fill="#C5BC61" d="M234.2,213c-1.2,1.2-0.3,2.8-0.7,4.2c-1-1.9-0.5-3.8-0.6-5.9C234.1,211.5,234.2,212.3,234.2,213z"/>
<path fill="#C5BB5F" d="M440.3,202.8c-0.2-0.7,0.1-1.5-0.6-2.1c0.2-0.7,0.5-1.4,0.7-2.2C441,200,441.3,201.5,440.3,202.8z"/>
<path fill="#33744F" d="M458.9,130.1c-0.3-0.3-0.6-0.6-0.8-0.9c0.3-0.8,0.7-1.6,1.2-2.7C459.7,128.1,459.7,129.1,458.9,130.1z"/>
<path fill="#F6F4E7" d="M37.2,273.3c3-0.9,5.9-0.9,8.9,0C43.1,273.3,40.1,273.3,37.2,273.3z"/>
<g>
	<g>
		<path fill="#0D5A2E" d="M428.1,318.9c0,2.7,0,5,0,7.7c1-0.6,1.6-0.8,2.1-1.2c18.6-16.6,50.5-11,65.5,10.7    c9.3,13.5,11.6,28.6,9.9,44.4c-1.6,14.3-7.5,26.4-18.4,36c-13.7,12-37.8,15.4-54.4,4.5c-0.7-0.5-1.5-0.9-2.9-1.6    c0,9.2,0,17.7,0,26.3c0,8.5,0,17,0,25.7c-12,0-23.7,0-35.7,0c-0.1-1.4-0.2-2.6-0.2-3.9c0-48.1,0-96.3-0.1-144.4    c0-3.4,0.8-4.6,4.4-4.5c8.5,0.3,17,0.1,25.6,0.1C425.1,318.7,426.4,318.8,428.1,318.9z M470.6,372c-0.4-2.8-0.5-5.8-1.2-8.7    c-2.3-10.3-10-16.7-19.9-16.8c-10.3-0.1-18.1,5.9-20.2,16.6c-1,5.2-1.2,10.8-0.5,16c1.4,11.1,9.4,18.2,19.8,18.5    c10.7,0.3,18.7-6.3,21-17.5C470.1,377.5,470.3,374.9,470.6,372z"/>
		<path fill="#0D5A2E" d="M699.7,365.2c-23.6,6.9-47,13.8-70.4,20.7c1.5,6.2,7.6,11,14.4,11.3c9.8,0.4,17.2-3.8,21.7-12.4    c1.4-2.6,2.7-3,5.3-2.1c9.2,3.2,18.5,6.3,28.1,9.5c-3.7,8.3-8.5,15.6-15.3,21.5c-25.7,22.3-68,16.6-87-11.5    c-4.5-6.7-6.1-14.3-7.1-22.1c-1.8-14.2-0.9-28,7.9-40.2c19.2-26.8,56.8-32.8,81.7-13c10.8,8.6,16.6,20.3,19.8,33.5    c0.3,1.1,0.5,2.2,0.8,3.4C699.6,364,699.6,364.3,699.7,365.2z M624.9,364.5c13-3.7,25.9-7.5,38.8-11.2    c-2.6-9.9-11.4-14.9-22.1-12.8C630.6,342.7,623.2,353.1,624.9,364.5z"/>
		<path fill="#0D5A2E" d="M218.3,385.8c1.3,6.2,7.5,11,14.4,11.3c9.8,0.4,17.2-3.8,21.7-12.4c1.4-2.7,2.7-3,5.3-2    c9.2,3.2,18.5,6.3,28,9.5c-5.3,11.8-12.7,21.2-23.7,27.6c-21.1,12.2-56.1,11.2-76.4-14.7c-6-7.7-8-16.6-9.4-25.9    c-5.3-34.4,17.5-57,42.7-62.6c29.4-6.6,55.8,8.7,64.9,37.4c1.1,3.5,2,7.1,3.2,11.1c-12,3.5-23.7,7-35.4,10.4    C241.9,378.9,230.2,382.3,218.3,385.8z M213.8,364.5c13.1-3.8,26-7.5,38.9-11.2c-2.3-9.6-10.7-14.6-21.4-12.9    C220.1,342.1,212.8,351.9,213.8,364.5z"/>
		<path fill="#0D5A2E" d="M94.7,425.1c-12,0-23.6,0-35.4,0c0-35.3,0-70.6,0-106.1c1-0.1,2-0.3,3-0.3c9.1,0,18.2,0.1,27.3-0.1    c2.7,0,3.8,0.8,3.5,3.5c-0.2,1.6,0,3.3,0,5.9c1.8-1.3,2.8-2,3.8-2.8c13.3-10.1,30.3-11.2,44.7-2.8c11,6.3,16.7,16.2,18.2,28.5    c0.6,5.1,0.8,10.3,0.8,15.5c0.1,18.2,0,36.4,0,54.6c0,1.3,0,2.5,0,4c-11.9,0-23.6,0-35.8,0c0-1.2,0-2.6,0-3.9c0-19,0-38-0.1-57    c-0.1-10.6-5.8-17.3-15.6-18.7c-8.7-1.3-14.2,3.1-14.3,11.9c-0.1,21.2-0.1,42.4-0.1,63.5C94.7,422.2,94.7,423.5,94.7,425.1z"/>
		<path fill="#0D5A2E" d="M372.5,317.8c0,9.1,0,18,0,27.5c-2.7-0.2-5.3-0.5-7.8-0.5c-7.6,0-15.2,0.1-22.7,0.2    c-2.2,0.1-5,0.7-4.9,3.3c0.1,1.7,2.1,3.8,3.7,4.7c5,2.7,10.6,4.6,15.5,7.5c4.8,2.8,9.8,5.8,13.7,9.7c16,15.9,11.2,41.8-9.4,50.7    c-6.6,2.9-14,4.7-21.2,5.4c-12.8,1.2-25.8,1.4-38.4-1.7c-0.8-0.2-2-1.3-2-2.1c-0.1-8.5-0.1-17-0.1-25.7c6.4,0.4,12.4,1.1,18.4,1.2    c5.7,0.1,11.5-0.3,17.2-0.9c2.7-0.3,6.3-1.1,6.2-4.3c-0.1-1.9-2.9-4.2-5-5.3c-6.8-3.8-14-6.9-20.9-10.6    c-13.1-6.9-18.7-17.4-17.1-31.7c1.4-13.3,9.1-22,23-26.1c13.8-4.1,27.9-3.9,42.1-2.4C366,316.8,369.1,317.3,372.5,317.8z"/>
		<path fill="#0D5A2E" d="M523,425.4c0-1.8,0-3,0-4.3c0-32.7,0.1-65.4-0.1-98.1c0-3.5,0.9-4.5,4.4-4.4c9.8,0.2,19.5,0.1,29.7,0.1    c0,3.6,0,6.8,0,10.5c4.6-3.4,8.7-6.7,13.1-9.5c4.5-2.9,9.7-3.2,15.1-2.9c0,10.2,0,20.2,0,30.5c-1.4-0.1-2.8-0.4-4.1-0.3    c-3.5,0.1-7.2-0.2-10.6,0.6c-7.2,1.6-11,6.3-11.3,14.1c-0.4,12.1-0.3,24.2-0.4,36.3c0,8.2,0,16.3,0,24.5c0,1.5,0.2,3-2.2,3    C545.7,425.3,534.6,425.4,523,425.4z"/>
		<path fill="#0D5A2E" d="M9.6,425c0-35.4,0-70.5,0-105.9c10.2,0,20.2,0,30.6,0c0,35.2,0,70.4,0,105.9C30.1,425,20,425,9.6,425z"/>
	</g>
	<g>
		<path fill="#B7AB38" d="M21.1,285.7c0,0,4.2-4.2,9.3-4.6s15.4-0.4,20.7-2.7s9-4,7.9-8.7c-1.1-4.8-13.4-8.9-27.1-6.8    S0.6,271,0,280.3s16.3,10.3,18.8,11.2c2.5,1,4,1.9,4,1.9s0.2-4-5.3-5.1c-5.5-1.1-14.3-1.7-15.8-7c-1.5-5.3,15.8-15.2,29.6-16    s28.5,1,26.2,6.1s-18.8,5.3-23.4,5.5S20.7,277.1,21.1,285.7z"/>
		<path fill="#B7AB38" d="M17.5,293.3c-5.5-1.1-14.1-1.7-15.7-6.9c-0.6-0.7-1.1-1.5-1.5-2.3c0,0,0,0,0,0c-0.1,0.4-0.2,0.8-0.2,1.2    c-0.6,9.3,16.3,10.3,18.8,11.2c2.5,1,4,1.9,4,1.9S23,294.4,17.5,293.3z"/>
		<path fill="#B7AB38" d="M31.9,267.8c-11.3,1.7-25.2,6.1-30.1,12.9c0,0.1,0,0.1,0.1,0.2c0.3,0.5,0.8,1,1.3,1.4    c4.4-5.2,17.3-11.4,28.2-12c9.7-0.5,19.8,0.2,24.2,2.4c0.5-0.3,0.9-0.6,1.3-0.9C52.6,268.4,42.7,266.1,31.9,267.8z"/>
		<path fill="#B7AB38" d="M59.1,275.1c-0.6,0.6-1.2,1.2-1.8,1.7c-3.1,4.6-18.7,4.8-23.1,5c-3.6,0.1-9.9,0.2-12.2,4.4    c0.6,0.7,1.2,1.5,1.7,2.3c1.7-1.1,4.1-2.3,6.8-2.5c5.1-0.4,15.4-0.4,20.7-2.7C56.3,281.2,59.8,279.5,59.1,275.1z"/>
		<path fill="#B7AB38" d="M17.5,297.8c-5.5-1.1-14.2-1.7-15.8-7c-0.2-0.4-0.5-0.7-0.7-1.1c-0.2-0.3-0.5-0.6-0.7-1    c0,0-0.1-0.1-0.1-0.1C0.1,289,0,289.4,0,289.8c-0.6,9.3,16.3,10.3,18.8,11.2c2.5,1,4,1.9,4,1.9S23,299,17.5,297.8z"/>
		<path fill="#B7AB38" d="M53,274.1c-5.1-2-12.8-3-21-1.8c-10.3,1.6-22.8,5.4-28.6,11.1c0.3,0.4,0.6,0.9,0.9,1.3c0,0,0,0,0.1,0    l0.5,0.4c5.4-4.8,16.8-9.8,26.5-10.3c6.1-0.3,12.3-0.2,17.2,0.5C50.1,275,51.5,274.6,53,274.1z"/>
		<path fill="#B7AB38" d="M59.1,279.4c-0.4,0.5-0.9,0.9-1.4,1.3c0,0.1-0.1,0.2-0.1,0.3c-2.3,5.1-18.8,5.3-23.4,5.5    c-2.9,0.1-7.5,0.2-10.4,2.4c0.6,1.1,1.1,2.2,1.5,3.4c1.5-0.8,3.3-1.5,5.2-1.6c5.1-0.4,15.4-0.4,20.7-2.7    C56.4,285.7,60.1,284,59.1,279.4z"/>
		<path fill="#B7AB38" d="M17.5,302.6c-5.5-1.1-14.3-1.7-15.8-7c0,0,0,0,0,0c-0.5-0.6-0.9-1.2-1.2-1.8c-0.1-0.2-0.2-0.3-0.3-0.5    c-0.1,0.4-0.2,0.9-0.2,1.4c-0.6,9.3,16.3,10.3,18.8,11.2c2.5,1,4,1.9,4,1.9S23,303.7,17.5,302.6z"/>
		<path fill="#B7AB38" d="M7,285.4c0,0,0,0.1,0.1,0.1c0.9,0.3,1.8,0.6,2.8,0.9c3.5-2.1,7.9-3.9,12.4-5.2c0-0.1,0.1-0.1,0.1-0.1    c0.1-0.2,0.3-0.5,0.5-0.6c0.9-0.6,1.7-1.3,2.5-2C18.7,279.9,11.8,282.3,7,285.4z"/>
		<path fill="#B7AB38" d="M59.2,284.8c-0.5,0.4-1.1,0.7-1.7,1.1c-2.7,4.9-18.8,5.1-23.3,5.3c-2.4,0.1-6,0.2-8.9,1.4    c0.4,1.3,0.7,2.6,0.9,3.9c1.3-0.6,2.7-1,4.2-1.1c5.1-0.4,15.4-0.4,20.7-2.7C56.1,290.6,59.6,288.9,59.2,284.8z"/>
		<path fill="#B7AB38" d="M20.9,284.1c-2.7,0.8-5.4,1.7-7.9,2.8c1.3,0.1,2.6,0.3,3.9,0.7c1.3-0.5,2.5-1,3.9-1.4    C20.6,285.5,20.7,284.8,20.9,284.1z"/>
		<path fill="#B7AB38" d="M17.5,307.1c-5.5-1.1-14.2-1.7-15.8-7c-0.6-0.6-1.1-1.2-1.6-1.9c-0.1,0.3-0.1,0.6-0.1,0.9    c-0.6,9.3,16.3,10.3,18.8,11.2c2.5,1,4,1.9,4,1.9S23,308.3,17.5,307.1z"/>
		<path fill="#B7AB38" d="M59.1,288.5c0-0.1,0-0.2-0.1-0.3c-0.4,0.5-0.8,1-1.2,1.5c0,0.2-0.1,0.3-0.2,0.5    c-2.3,5.1-18.8,5.3-23.4,5.5c-2.1,0.1-5.2,0.1-7.9,1.1c0.2,1.4,0.4,2.7,0.4,4c1.1-0.5,2.4-0.8,3.7-0.9c5.1-0.4,15.4-0.4,20.7-2.7    C56.5,295,60.1,293.3,59.1,288.5z"/>
	</g>
</g>
</svg>