<?xml version="1.0" encoding="utf-8"?>
<!-- Generator: Adobe Illustrator 19.0.0, SVG Export Plug-In . SVG Version: 6.00 Build 0)  -->
<svg version="1.0" id="Capa_1" xmlns="http://www.w3.org/2000/svg" xmlns:xlink="http://www.w3.org/1999/xlink" x="0px" y="0px"
	 viewBox="0 0 357.8 106.6" enable-background="new 0 0 357.8 106.6" xml:space="preserve">
<g>
	<g>
		<path fill="#FBFFE9" d="M217.6,30.8c0,1.4,0,2.5,0,3.8c0.5-0.3,0.8-0.4,1-0.6c9.2-8.3,25.1-5.5,32.5,5.3
			c4.6,6.7,5.8,14.2,4.9,22.1c-0.8,7.1-3.7,13.1-9.1,17.9c-6.8,6-18.8,7.6-27,2.2c-0.4-0.2-0.8-0.4-1.5-0.8c0,4.5,0,8.8,0,13.1
			c0,4.2,0,8.4,0,12.8c-6,0-11.8,0-17.7,0c0-0.7-0.1-1.3-0.1-1.9c0-23.9,0-47.8,0-71.7c0-1.7,0.4-2.3,2.2-2.2c4.2,0.1,8.5,0,12.7,0
			C216.1,30.7,216.8,30.8,217.6,30.8z M238.7,57.2c-0.2-1.4-0.3-2.9-0.6-4.3c-1.1-5.1-5-8.3-9.9-8.4c-5.1-0.1-9,2.9-10,8.2
			c-0.5,2.6-0.6,5.4-0.2,8c0.7,5.5,4.7,9,9.8,9.2c5.3,0.1,9.3-3.1,10.4-8.7C238.5,60,238.6,58.7,238.7,57.2z"/>
		<path fill="#FBFFE9" d="M352.5,53.8c-11.7,3.4-23.3,6.9-35,10.3c0.7,3.1,3.8,5.4,7.2,5.6c4.9,0.2,8.5-1.9,10.8-6.1
			c0.7-1.3,1.3-1.5,2.6-1c4.6,1.6,9.2,3.1,13.9,4.7c-1.9,4.1-4.2,7.8-7.6,10.7c-12.7,11.1-33.8,8.3-43.2-5.7c-2.3-3.3-3-7.1-3.5-11
			c-0.9-7.1-0.4-13.9,3.9-20c9.5-13.3,28.2-16.3,40.6-6.5c5.4,4.3,8.2,10.1,9.8,16.6c0.1,0.6,0.3,1.1,0.4,1.7
			C352.5,53.2,352.5,53.4,352.5,53.8z M315.3,53.5c6.4-1.9,12.9-3.7,19.3-5.5c-1.3-4.9-5.7-7.4-11-6.4
			C318.2,42.7,314.5,47.8,315.3,53.5z"/>
		<path fill="#FBFFE9" d="M113.4,64.1c0.7,3.1,3.7,5.5,7.2,5.6c4.9,0.2,8.5-1.9,10.8-6.2c0.7-1.3,1.4-1.5,2.7-1
			c4.6,1.6,9.2,3.1,13.9,4.7c-2.6,5.8-6.3,10.5-11.8,13.7c-10.5,6.1-27.9,5.6-37.9-7.3c-3-3.8-4-8.3-4.7-12.9
			c-2.6-17.1,8.7-28.3,21.2-31.1c14.6-3.3,27.7,4.3,32.2,18.6c0.6,1.7,1,3.5,1.6,5.5c-5.9,1.7-11.8,3.5-17.6,5.2
			C125.1,60.6,119.3,62.3,113.4,64.1z M111.2,53.5c6.5-1.9,12.9-3.7,19.3-5.6c-1.1-4.8-5.3-7.3-10.6-6.4
			C114.3,42.4,110.7,47.2,111.2,53.5z"/>
		<path fill="#FBFFE9" d="M52,83.6c-6,0-11.7,0-17.6,0c0-17.5,0-35,0-52.7c0.5-0.1,1-0.1,1.5-0.1c4.5,0,9,0,13.5,0
			c1.3,0,1.9,0.4,1.7,1.8c-0.1,0.8,0,1.6,0,2.9c0.9-0.7,1.4-1,1.9-1.4c6.6-5,15-5.6,22.2-1.4c5.5,3.2,8.3,8.1,9.1,14.2
			c0.3,2.5,0.4,5.1,0.4,7.7c0,9,0,18.1,0,27.1c0,0.6,0,1.2,0,2c-5.9,0-11.7,0-17.8,0c0-0.6,0-1.3,0-1.9c0-9.4,0-18.9-0.1-28.3
			c0-5.3-2.9-8.6-7.8-9.3c-4.3-0.7-7.1,1.5-7.1,5.9C52,60.4,52,71,52,81.5C52,82.1,52,82.8,52,83.6z"/>
		<path fill="#FBFFE9" d="M190,30.3c0,4.5,0,9,0,13.7c-1.3-0.1-2.6-0.2-3.9-0.2c-3.8,0-7.5,0-11.3,0.1c-1.1,0-2.5,0.3-2.4,1.6
			c0.1,0.8,1,1.9,1.9,2.3c2.5,1.4,5.2,2.3,7.7,3.7c2.4,1.4,4.9,2.9,6.8,4.8c7.9,7.9,5.6,20.8-4.7,25.2c-3.3,1.4-7,2.3-10.6,2.7
			c-6.4,0.6-12.8,0.7-19.1-0.9c-0.4-0.1-1-0.7-1-1c-0.1-4.2,0-8.4,0-12.8c3.2,0.2,6.2,0.5,9.2,0.6c2.8,0,5.7-0.2,8.5-0.5
			c1.3-0.1,3.1-0.5,3.1-2.1c0-0.9-1.4-2.1-2.5-2.6c-3.4-1.9-7-3.5-10.4-5.3c-6.5-3.4-9.3-8.7-8.5-15.7c0.7-6.6,4.5-10.9,11.4-13
			c6.9-2,13.9-1.9,20.9-1.2C186.8,29.8,188.3,30.1,190,30.3z"/>
		<path fill="#FBFFE9" d="M264.8,83.7c0-0.9,0-1.5,0-2.1c0-16.2,0-32.5,0-48.7c0-1.7,0.5-2.2,2.2-2.2c4.8,0.1,9.7,0,14.8,0
			c0,1.8,0,3.4,0,5.2c2.3-1.7,4.3-3.3,6.5-4.7c2.2-1.5,4.8-1.6,7.5-1.5c0,5.1,0,10,0,15.2c-0.7-0.1-1.4-0.2-2-0.2
			c-1.8,0-3.6-0.1-5.3,0.3c-3.6,0.8-5.5,3.1-5.6,7c-0.2,6-0.2,12-0.2,18c0,4.1,0,8.1,0,12.2c0,0.8,0.1,1.5-1.1,1.5
			C276,83.7,270.5,83.7,264.8,83.7z"/>
		<path fill="#FBFFE9" d="M9.8,83.6c0-17.6,0-35,0-52.6c5.1,0,10,0,15.2,0c0,17.5,0,35,0,52.6C20,83.6,15,83.6,9.8,83.6z"/>
	</g>
	<g>
		<path fill="#B7AB38" d="M15.5,14.3c0,0,2.1-2.1,4.6-2.3s7.6-0.2,10.3-1.3s4.5-2,3.9-4.3C33.8,4.1,27.7,2,20.9,3S5.3,7.1,5,11.7
			s8.1,5.1,9.3,5.6s2,0.9,2,0.9s0.1-2-2.6-2.5c-2.7-0.6-7.1-0.8-7.8-3.5s7.8-7.6,14.7-7.9s14.2,0.5,13,3S24.3,9.9,22,10
			C19.7,10.1,15.3,10.1,15.5,14.3z"/>
		<path fill="#B7AB38" d="M13.7,18.1c-2.7-0.6-7-0.8-7.8-3.4c-0.3-0.4-0.6-0.7-0.8-1.1c0,0,0,0,0,0c0,0.2-0.1,0.4-0.1,0.6
			c-0.3,4.6,8.1,5.1,9.3,5.6c1.2,0.5,2,0.9,2,0.9S16.4,18.7,13.7,18.1z"/>
		<path fill="#B7AB38" d="M20.9,5.5c-5.6,0.9-12.5,3.1-15,6.4c0,0,0,0.1,0,0.1c0.2,0.3,0.4,0.5,0.6,0.7c2.2-2.6,8.6-5.7,14-6
			c4.8-0.3,9.8,0.1,12,1.2c0.2-0.1,0.5-0.3,0.7-0.5C31.2,5.8,26.2,4.7,20.9,5.5z"/>
		<path fill="#B7AB38" d="M34.4,9.1c-0.3,0.3-0.6,0.6-0.9,0.9c-1.6,2.3-9.3,2.4-11.5,2.5c-1.8,0.1-4.9,0.1-6.1,2.2
			c0.3,0.3,0.6,0.7,0.8,1.2c0.8-0.6,2-1.2,3.4-1.3c2.5-0.2,7.6-0.2,10.3-1.3C33,12.1,34.7,11.3,34.4,9.1z"/>
		<path fill="#B7AB38" d="M13.7,20.4c-2.7-0.6-7.1-0.8-7.8-3.5c-0.1-0.2-0.2-0.4-0.4-0.5c-0.1-0.2-0.2-0.3-0.3-0.5c0,0,0,0-0.1-0.1
			C5.1,16,5,16.2,5,16.4c-0.3,4.6,8.1,5.1,9.3,5.6c1.2,0.5,2,0.9,2,0.9S16.4,20.9,13.7,20.4z"/>
		<path fill="#B7AB38" d="M20.9,7.7c-5.1,0.8-11.3,2.7-14.2,5.5c0,0,0,0,0,0c0.3,0.2,0.7,0.4,1,0.6c2.8-2.3,8.3-4.7,12.9-4.9
			c3-0.2,6.1-0.1,8.5,0.3c0.7-0.2,1.5-0.4,2.2-0.6C28.8,7.6,24.9,7.1,20.9,7.7z"/>
		<path fill="#B7AB38" d="M34.4,11.2c-0.2,0.2-0.4,0.4-0.7,0.6c0,0,0,0.1,0,0.1c-1.1,2.5-9.3,2.6-11.6,2.7c-1.4,0.1-3.7,0.1-5.2,1.2
			c0.3,0.5,0.5,1.1,0.7,1.7c0.7-0.4,1.6-0.7,2.6-0.8c2.5-0.2,7.6-0.2,10.3-1.3C33,14.4,34.8,13.5,34.4,11.2z"/>
		<path fill="#B7AB38" d="M13.7,22.7c-2.7-0.6-7.1-0.8-7.8-3.5c0,0,0,0,0,0c-0.2-0.3-0.4-0.6-0.6-0.9c-0.1-0.1-0.1-0.2-0.2-0.2
			C5.1,18.3,5,18.6,5,18.8c-0.3,4.6,8.1,5.1,9.3,5.6c1.2,0.5,2,0.9,2,0.9S16.4,23.3,13.7,22.7z"/>
		<path fill="#B7AB38" d="M8.5,14.2C8.5,14.2,8.5,14.3,8.5,14.2c0.5,0.2,0.9,0.4,1.4,0.5c1.8-1,3.9-2,6.1-2.6c0,0,0,0,0.1-0.1
			c0-0.1,0.1-0.2,0.3-0.3c0.4-0.3,0.9-0.7,1.3-1C14.3,11.5,10.9,12.7,8.5,14.2z"/>
		<path fill="#B7AB38" d="M34.4,13.9c-0.3,0.2-0.6,0.4-0.8,0.5c-1.3,2.4-9.3,2.5-11.6,2.6c-1.2,0-3,0.1-4.4,0.7
			c0.2,0.6,0.3,1.3,0.4,1.9c0.6-0.3,1.3-0.5,2.1-0.6c2.5-0.2,7.6-0.2,10.3-1.3C32.9,16.8,34.6,16,34.4,13.9z"/>
		<path fill="#B7AB38" d="M15.4,13.6C14,14,12.7,14.4,11.5,15c0.7,0,1.3,0.2,1.9,0.4c0.6-0.3,1.3-0.5,1.9-0.7
			C15.2,14.3,15.3,13.9,15.4,13.6z"/>
		<path fill="#B7AB38" d="M13.7,25c-2.7-0.6-7.1-0.8-7.8-3.5c-0.3-0.3-0.6-0.6-0.8-1C5.1,20.7,5,20.9,5,21c-0.3,4.6,8.1,5.1,9.3,5.6
			c1.2,0.5,2,0.9,2,0.9S16.4,25.6,13.7,25z"/>
		<path fill="#B7AB38" d="M34.3,15.8c0,0,0-0.1,0-0.1c-0.2,0.3-0.4,0.5-0.6,0.7c0,0.1,0,0.2-0.1,0.2c-1.1,2.5-9.3,2.6-11.6,2.7
			c-1.1,0-2.6,0.1-3.9,0.5c0.1,0.7,0.2,1.3,0.2,2c0.6-0.2,1.2-0.4,1.8-0.4c2.5-0.2,7.6-0.2,10.3-1.3C33.1,19,34.9,18.1,34.3,15.8z"
			/>
	</g>
</g>
</svg>
